<svg xmlns="http://www.w3.org/2000/svg" width="80" height="80" fill="none" viewBox="0 0 80 80"><mask id="mask0_211_34197" style="mask-type:luminance" width="68" height="68" x="6" y="6" maskUnits="userSpaceOnUse"><path fill="#fff" fill-rule="evenodd" d="M73.3333 40C73.3333 21.59 58.41 6.66667 40 6.66667C21.59 6.66667 6.66663 21.59 6.66663 40C6.66663 58.41 21.59 73.3333 40 73.3333C58.41 73.3333 73.3333 58.41 73.3333 40ZM40 13.3333C25.2966 13.3333 13.3333 25.2967 13.3333 40C13.3333 54.7033 25.2966 66.6667 40 66.6667C54.7033 66.6667 66.6666 54.7033 66.6666 40C66.6666 25.2967 54.7033 13.3333 40 13.3333ZM43.3333 30V23.3333H36.6666V30H43.3333ZM43.3333 36.6667V56.6667H36.6666V36.6667H43.3333Z" clip-rule="evenodd"/></mask><g mask="url(#mask0_211_34197)"><rect width="80" height="80" fill="#DCDCDE"/></g></svg>