<svg xmlns="http://www.w3.org/2000/svg" width="1140" height="500" fill="none" viewBox="0 0 1140 500"><path fill="#fff" d="M4 7.99999C4 5.79086 5.79085 4 8 4H1132C1134.21 4 1136 5.79088 1136 8V492C1136 494.209 1134.21 496 1132 496H8.00001C5.79087 496 4 494.209 4 492V7.99999Z"/><path stroke="#515962" stroke-width="8" d="M4 7.99999C4 5.79086 5.79085 4 8 4H1132C1134.21 4 1136 5.79088 1136 8V492C1136 494.209 1134.21 496 1132 496H8.00001C5.79087 496 4 494.209 4 492V7.99999Z"/><rect width="200" height="28" x="60" y="60" fill="#818A96" rx="8"/><rect width="480" height="16" x="60" y="128" fill="#BABFC5" rx="8"/><rect width="480" height="16" x="60" y="156" fill="#BABFC5" rx="8"/><rect width="200" height="16" x="60" y="184" fill="#BABFC5" rx="8"/><rect width="120" height="8" x="60" y="240" fill="#818A96" rx="4"/><path fill="#BABFC5" d="M68 257.25C72.2812 257.25 75.75 260.719 75.75 265C75.75 269.281 72.2812 272.75 68 272.75C63.7188 272.75 60.25 269.281 60.25 265C60.25 260.719 63.7188 257.25 68 257.25Z"/><rect width="80" height="8" x="84" y="261" fill="#BABFC5" rx="4"/><path fill="#BABFC5" d="M68 283.25C72.2812 283.25 75.75 286.719 75.75 291C75.75 295.281 72.2812 298.75 68 298.75C63.7188 298.75 60.25 295.281 60.25 291C60.25 286.719 63.7188 283.25 68 283.25Z"/><rect width="80" height="8" x="84" y="287" fill="#BABFC5" rx="4"/><rect width="120" height="8" x="60" y="320" fill="#818A96" rx="4"/><rect width="80" height="8" x="60" y="336" fill="#BABFC5" rx="4"/><rect width="80" height="8" x="60" y="352" fill="#BABFC5" rx="4"/><rect width="120" height="8" x="60" y="380" fill="#818A96" rx="4"/><path fill="#BABFC5" d="M68 397.25C72.2812 397.25 75.75 400.719 75.75 405C75.75 409.281 72.2812 412.75 68 412.75C63.7188 412.75 60.25 409.281 60.25 405C60.25 400.719 63.7188 397.25 68 397.25Z"/><path fill="#BABFC5" d="M92 397.25C96.2812 397.25 99.75 400.719 99.75 405C99.75 409.281 96.2812 412.75 92 412.75C87.7188 412.75 84.25 409.281 84.25 405C84.25 400.719 87.7188 397.25 92 397.25Z"/><path fill="#BABFC5" d="M116 397.25C120.281 397.25 123.75 400.719 123.75 405C123.75 409.281 120.281 412.75 116 412.75C111.719 412.75 108.25 409.281 108.25 405C108.25 400.719 111.719 397.25 116 397.25Z"/><g clip-path="url(#clip0_194_368)"><path fill="#D5D8DC" d="M600 68C600 63.5817 603.582 60 608 60H1072C1076.42 60 1080 63.5817 1080 68V432C1080 436.418 1076.42 440 1072 440H608C603.582 440 600 436.418 600 432V68Z"/></g><path stroke="#515962" stroke-linejoin="round" stroke-width="8" d="M1072 56H608C601.373 56 596 61.3726 596 68V432C596 438.627 601.373 444 608 444H1072C1078.63 444 1084 438.627 1084 432V68C1084 61.3726 1078.63 56 1072 56Z"/><mask id="mask0_194_368" style="mask-type:luminance" width="480" height="380" x="600" y="60" maskUnits="userSpaceOnUse"><path fill="#fff" d="M1072 60H608C603.582 60 600 63.5817 600 68V432C600 436.418 603.582 440 608 440H1072C1076.42 440 1080 436.418 1080 432V68C1080 63.5817 1076.42 60 1072 60Z"/></mask><g mask="url(#mask0_194_368)"><path stroke="#fff" stroke-linecap="round" stroke-miterlimit="10" stroke-width="12.88" d="M1132.43 105.85L83.9199 228.1"/><path stroke="#fff" stroke-linecap="round" stroke-miterlimit="10" stroke-width="12.88" d="M1148.03 380.47L-2.93994 436.08"/><path stroke="#fff" stroke-linecap="round" stroke-miterlimit="10" stroke-width="12.88" d="M1007.91 492.88L908.83 35.61"/><path stroke="#fff" stroke-linecap="round" stroke-miterlimit="10" stroke-width="12.88" d="M1122.78 181.61L670.36 234.36"/><path stroke="#fff" stroke-linecap="round" stroke-miterlimit="10" stroke-width="12.88" d="M1141.54 251.55L689.12 304.3"/><path stroke="#fff" stroke-linecap="round" stroke-miterlimit="10" stroke-width="12.88" d="M625.02 33L735.05 520.05"/></g><defs><clipPath id="clip0_194_368"><path fill="#fff" d="M600 68C600 63.5817 603.582 60 608 60H1072C1076.42 60 1080 63.5817 1080 68V432C1080 436.418 1076.42 440 1072 440H608C603.582 440 600 436.418 600 432V68Z"/></clipPath></defs></svg>