<svg xmlns="http://www.w3.org/2000/svg" width="1140" height="260" fill="none" viewBox="0 0 1140 260"><rect width="1132" height="252" x="4" y="4" fill="#fff" rx="4"/><rect width="1132" height="252" x="4" y="4" stroke="#515962" stroke-width="8" rx="4"/><rect width="655" height="28" x="60" y="60" fill="#818A96" rx="8"/><rect width="655" height="16" x="60" y="128" fill="#BABFC5" rx="8"/><rect width="655" height="16" x="60" y="156" fill="#BABFC5" rx="8"/><rect width="200" height="16" x="60" y="184" fill="#BABFC5" rx="8"/><path fill="#515962" d="M848 62H944C947.314 62 950 64.6863 950 68V88C950 91.3137 947.314 94 944 94H848C844.686 94 842 91.3137 842 88V68C842 64.6863 844.686 62 848 62Z"/><path stroke="#515962" stroke-linejoin="round" stroke-width="4" d="M848 62H944C947.314 62 950 64.6863 950 68V88C950 91.3137 947.314 94 944 94H848C844.686 94 842 91.3137 842 88V68C842 64.6863 844.686 62 848 62Z"/><path fill="#BABFC5" d="M976 64H1072C1074.21 64 1076 65.7909 1076 68V88C1076 90.2091 1074.21 92 1072 92H976C973.791 92 972 90.2091 972 88V68C972 65.7909 973.791 64 976 64Z"/><path stroke="#515962" stroke-linejoin="round" stroke-width="8" d="M976 64H1072C1074.21 64 1076 65.7909 1076 68V88C1076 90.2091 1074.21 92 1072 92H976C973.791 92 972 90.2091 972 88V68C972 65.7909 973.791 64 976 64Z"/></svg>