<svg xmlns="http://www.w3.org/2000/svg" width="1140" height="500" fill="none" viewBox="0 0 1140 500"><path fill="#fff" d="M8 4H1132C1134.21 4 1136 5.79087 1136 8V492C1136 494.209 1134.21 496 1132 496H8.00001C5.79086 496 4 494.209 4 492V7.99999C4 5.79086 5.79085 4 8 4Z"/><path stroke="#515962" stroke-width="8" d="M8 4H1132C1134.21 4 1136 5.79087 1136 8V492C1136 494.209 1134.21 496 1132 496H8.00001C5.79086 496 4 494.209 4 492V7.99999C4 5.79086 5.79085 4 8 4Z"/><rect width="100" height="8" x="60" y="94" fill="#BABFC5" rx="4"/><rect width="480" height="28" x="60" y="142" fill="#818A96" rx="8"/><rect width="200" height="28" x="60" y="190" fill="#818A96" rx="8"/><rect width="480" height="16" x="60" y="258" fill="#BABFC5" rx="8"/><rect width="480" height="16" x="60" y="286" fill="#BABFC5" rx="8"/><rect width="200" height="16" x="60" y="314" fill="#BABFC5" rx="8"/><path fill="#515962" d="M68 372H164C167.314 372 170 374.686 170 378V398C170 401.314 167.314 404 164 404H68C64.6863 404 62 401.314 62 398V378C62 374.686 64.6863 372 68 372Z"/><path stroke="#515962" stroke-linejoin="round" stroke-width="4" d="M68 372H164C167.314 372 170 374.686 170 378V398C170 401.314 167.314 404 164 404H68C64.6863 404 62 401.314 62 398V378C62 374.686 64.6863 372 68 372Z"/><g clip-path="url(#clip0_182_4040)"><path fill="#D5D8DC" d="M600 68C600 63.5817 603.582 60 608 60H1072C1076.42 60 1080 63.5817 1080 68V432C1080 436.418 1076.42 440 1072 440H608C603.582 440 600 436.418 600 432V68Z"/></g><path stroke="#515962" stroke-linejoin="round" stroke-width="8" d="M1072 56H608C601.373 56 596 61.3726 596 68V432C596 438.627 601.373 444 608 444H1072C1078.63 444 1084 438.627 1084 432V68C1084 61.3726 1078.63 56 1072 56Z"/><defs><clipPath id="clip0_182_4040"><path fill="#fff" d="M600 68C600 63.5817 603.582 60 608 60H1072C1076.42 60 1080 63.5817 1080 68V432C1080 436.418 1076.42 440 1072 440H608C603.582 440 600 436.418 600 432V68Z"/></clipPath></defs></svg>