<svg xmlns="http://www.w3.org/2000/svg" width="1140" height="312" fill="none" viewBox="0 0 1140 312"><path fill="#fff" d="M8 4H1132C1134.21 4 1136 5.79088 1136 8V304C1136 306.209 1134.21 308 1132 308H8C5.79086 308 4 306.209 4 304V8C4 5.79086 5.79086 4 8 4Z"/><path stroke="#515962" stroke-width="8" d="M8 4H1132C1134.21 4 1136 5.79088 1136 8V304C1136 306.209 1134.21 308 1132 308H8C5.79086 308 4 306.209 4 304V8C4 5.79086 5.79086 4 8 4Z"/><rect width="68" height="68" x="64" y="64" fill="#D5D8DC" stroke="#515962" stroke-linejoin="round" stroke-width="8" rx="4"/><rect width="92" height="12" x="60" y="156" fill="#818A96" rx="6"/><rect width="180" height="8" x="60" y="188" fill="#BABFC5" rx="4"/><rect width="80" height="8" x="60" y="204" fill="#BABFC5" rx="4"/><rect width="92" height="12" x="369.333" y="60" fill="#818A96" rx="6"/><rect width="72" height="8" x="369.333" y="92" fill="#BABFC5" rx="4"/><rect width="72" height="8" x="369.333" y="112" fill="#BABFC5" rx="4"/><rect width="72" height="8" x="369.333" y="132" fill="#BABFC5" rx="4"/><rect width="72" height="8" x="369.333" y="152" fill="#BABFC5" rx="4"/><rect width="92" height="12" x="678.667" y="60" fill="#818A96" rx="6"/><rect width="72" height="8" x="678.667" y="92" fill="#BABFC5" rx="4"/><rect width="72" height="8" x="678.667" y="112" fill="#BABFC5" rx="4"/><rect width="72" height="8" x="678.667" y="132" fill="#BABFC5" rx="4"/><rect width="92" height="12" x="988" y="60" fill="#818A96" rx="6"/><path fill="#BABFC5" d="M996 93.25C1000.28 93.25 1003.75 96.7188 1003.75 101C1003.75 105.281 1000.28 108.75 996 108.75C991.719 108.75 988.25 105.281 988.25 101C988.25 96.7188 991.719 93.25 996 93.25Z"/><path fill="#BABFC5" d="M1024 93.25C1028.28 93.25 1031.75 96.7188 1031.75 101C1031.75 105.281 1028.28 108.75 1024 108.75C1019.72 108.75 1016.25 105.281 1016.25 101C1016.25 96.7188 1019.72 93.25 1024 93.25Z"/><path fill="#BABFC5" d="M1052 93.25C1056.28 93.25 1059.75 96.7188 1059.75 101C1059.75 105.281 1056.28 108.75 1052 108.75C1047.72 108.75 1044.25 105.281 1044.25 101C1044.25 96.7188 1047.72 93.25 1052 93.25Z"/><rect width="120" height="8" x="60" y="244" fill="#BABFC5" rx="4"/></svg>