<svg xmlns="http://www.w3.org/2000/svg" width="1140" height="124" fill="none" viewBox="0 0 1140 124"><rect width="1132" height="116" x="4" y="4" fill="#fff" rx="4"/><rect width="1132" height="116" x="4" y="4" stroke="#515962" stroke-width="8" rx="4"/><rect width="72" height="16" x="32" y="54" fill="#BABFC5" rx="8"/><rect width="72" height="16" x="120" y="54" fill="#BABFC5" rx="8"/><rect width="72" height="16" x="208" y="54" fill="#BABFC5" rx="8"/><rect width="72" height="16" x="296" y="54" fill="#BABFC5" rx="8"/><path fill="#515962" d="M1004 46H1100C1103.31 46 1106 48.6863 1106 52V72C1106 75.3137 1103.31 78 1100 78H1004C1000.69 78 998 75.3137 998 72V52C998 48.6863 1000.69 46 1004 46Z"/><path stroke="#515962" stroke-linejoin="round" stroke-width="4" d="M1004 46H1100C1103.31 46 1106 48.6863 1106 52V72C1106 75.3137 1103.31 78 1100 78H1004C1000.69 78 998 75.3137 998 72V52C998 48.6863 1000.69 46 1004 46Z"/><rect width="68" height="68" x="532" y="28" fill="#D5D8DC" stroke="#515962" stroke-linejoin="round" stroke-width="8" rx="8"/></svg>