<svg xmlns="http://www.w3.org/2000/svg" width="1140" height="500" fill="none" viewBox="0 0 1140 500"><rect width="1132" height="492" x="4" y="4" fill="#fff" rx="4"/><rect width="1132" height="492" x="4" y="4" stroke="#515962" stroke-width="8" rx="4"/><g clip-path="url(#clip0_169_2512)"><rect width="480" height="380" x="60" y="60" fill="#D5D8DC" rx="8"/></g><rect width="488" height="388" x="56" y="56" stroke="#515962" stroke-linejoin="round" stroke-width="8" rx="12"/><rect width="480" height="28" x="600" y="60" fill="#818A96" rx="8"/><rect width="200" height="28" x="600" y="108" fill="#818A96" rx="8"/><rect width="480" height="16" x="600" y="176" fill="#BABFC5" rx="8"/><rect width="480" height="16" x="600" y="204" fill="#BABFC5" rx="8"/><rect width="200" height="16" x="600" y="232" fill="#BABFC5" rx="8"/><path fill="#515962" d="M608 290H704C707.314 290 710 292.686 710 296V316C710 319.314 707.314 322 704 322H608C604.686 322 602 319.314 602 316V296C602 292.686 604.686 290 608 290Z"/><path stroke="#515962" stroke-linejoin="round" stroke-width="4" d="M608 290H704C707.314 290 710 292.686 710 296V316C710 319.314 707.314 322 704 322H608C604.686 322 602 319.314 602 316V296C602 292.686 604.686 290 608 290Z"/><path fill="#BABFC5" d="M736 292H832C834.209 292 836 293.791 836 296V316C836 318.209 834.209 320 832 320H736C733.791 320 732 318.209 732 316V296C732 293.791 733.791 292 736 292Z"/><path stroke="#515962" stroke-linejoin="round" stroke-width="8" d="M736 292H832C834.209 292 836 293.791 836 296V316C836 318.209 834.209 320 832 320H736C733.791 320 732 318.209 732 316V296C732 293.791 733.791 292 736 292Z"/><defs><clipPath id="clip0_169_2512"><rect width="480" height="380" x="60" y="60" fill="#fff" rx="8"/></clipPath></defs></svg>